<svg xmlns="http://www.w3.org/2000/svg" xml:space="preserve" viewBox="0 0 512 512">
  <path fill="#3891e9" d="M277.8 57.2V30a21.8 21.8 0 1 0-43.6 0v27.2a21.8 21.8 0 1 0 43.6 0z"/>
  <path fill="#68aef4" d="M201.5 57.2V30a21.8 21.8 0 1 0-43.5 0v27.2a21.8 21.8 0 1 0 43.5 0zm152.5 0V30a21.8 21.8 0 1 0-43.5 0v27.2a21.8 21.8 0 1 0 43.5 0z"/>
  <path fill="#c08577" d="M343.1 438.5V482H136.2V226h206.9v43.6L288.7 354z"/>
  <path fill="#ab5d4a" d="M310.5 226h65.4v256h-65.4z"/>
  <path fill="#d5aea4" d="m354 471.1-21.7 16.4 21.7 16.3h32.7v-32.7zm-10.9-201.5v168.9h-32.6L288.7 354l21.8-84.4z"/>
  <path fill="#ead6d2" d="M168.9 269.6h141.6v168.9H168.9z"/>
  <path fill="#d5aea4" d="m288.7 149.8 65.3 87.1h32.7v-87.1z"/>
  <path fill="#ead6d2" d="M125.3 149.8h228.8v87.1H125.3z"/>
  <path fill="#ab5d4a" d="M419.4 138.9v32.7h-32.7l-10.9-16.4 10.9-16.3z"/>
  <path fill="#ead6d2" d="M125.3 471.1h228.8v32.7H125.3z"/>
  <path fill="#c08577" d="M92.6 138.9h294.1v32.7H92.6z"/>
  <path d="M419.4 130.7h-79V86a30 30 0 0 0 21.8-28.8V30a30 30 0 0 0-59.9 0v27.2A30 30 0 0 0 324.1 86v44.7h-60V86A30 30 0 0 0 286 57.2V30a30 30 0 0 0-60 0v27.2A30 30 0 0 0 247.8 86v44.7H188V86a30 30 0 0 0 21.8-28.8V30a30 30 0 0 0-60 0v27.2A30 30 0 0 0 171.7 86v44.7h-79a8.2 8.2 0 0 0-8.2 8.2v32.7c0 4.5 3.7 8.1 8.2 8.1h24.5V237c0 4.5 3.7 8.2 8.2 8.2h2.7V463h-2.7a8.2 8.2 0 0 0-8.2 8.1v24.6h-2.7a8.2 8.2 0 1 0 0 16.3h283.2a8.2 8.2 0 1 0 0-16.3H395V471c0-4.5-3.7-8.1-8.2-8.1H384V245h2.7c4.5 0 8.2-3.7 8.2-8.2v-57.2h24.5c4.5 0 8.2-3.6 8.2-8.1v-32.7c0-4.5-3.7-8.2-8.2-8.2zM318.6 57.2V30a13.6 13.6 0 0 1 27.3 0v27.2a13.6 13.6 0 0 1-27.3 0zm-76.2 0V30a13.6 13.6 0 0 1 27.2 0v27.2a13.6 13.6 0 0 1-27.2 0zm-76.3 0V30a13.6 13.6 0 0 1 27.3 0v27.2a13.6 13.6 0 0 1-27.3 0zM367.7 463H343a8.2 8.2 0 1 0 0 16.3h35.5v16.4H133.4v-16.4h177a8.2 8.2 0 1 0 0-16.3h-166V245h223.3v218zm10.9-234.2H133.4v-49h245.2v49zm32.6-65.4H100.8v-16.3h310.4v16.3z"/>
  <path d="M158 212.4h196a8.2 8.2 0 1 0 0-16.3H158a8.2 8.2 0 1 0 0 16.3zm10.9 149.8a8.2 8.2 0 0 0-8.2 8.2v68c0 4.6 3.6 8.2 8.2 8.2H343a8 8 0 0 0 8.2-8.1V269.6c0-4.5-3.6-8.2-8.2-8.2H169a8.2 8.2 0 0 0-8.2 8.2v68.1a8.2 8.2 0 1 0 16.3 0v-60h158v152.6H177v-60a8 8 0 0 0-8.1-8z"/>
</svg>